<mxfile host="app.diagrams.net" agent="Mozilla/5.0 (Windows NT 10.0; Win64; x64) AppleWebKit/537.36 (KHTML, like Gecko) Chrome/140.0.0.0 Safari/537.36" version="28.2.0">
  <diagram name="Page-1" id="c37626ed-c26b-45fb-9056-f9ebc6bb27b6">
    <mxGraphModel dx="8340" dy="4627" grid="1" gridSize="10" guides="1" tooltips="1" connect="1" arrows="1" fold="1" page="1" pageScale="1" pageWidth="1100" pageHeight="850" background="none" math="0" shadow="0">
      <root>
        <mxCell id="0" />
        <mxCell id="1" parent="0" />
        <mxCell id="vy7EhUKRSJDdzfkEdfcL-64" value="&lt;font style=&quot;font-size: 40px;&quot;&gt;GRUPO ARRIETA&lt;/font&gt;" style="whiteSpace=wrap;html=1;rounded=0;shadow=0;comic=0;strokeWidth=1;fontFamily=Verdana;fontSize=14;fillColor=#d5e8d4;strokeColor=#82b366;verticalAlign=top;fontStyle=1;gradientColor=#97d077;" parent="1" vertex="1">
          <mxGeometry x="660" y="340" width="4260" height="1720" as="geometry" />
        </mxCell>
        <mxCell id="vy7EhUKRSJDdzfkEdfcL-23" value="&lt;font style=&quot;font-size: 40px;&quot;&gt;TEGUCIGALPA - SEDE CENTRAL&lt;/font&gt;" style="whiteSpace=wrap;html=1;rounded=0;shadow=0;comic=0;strokeWidth=1;fontFamily=Verdana;fontSize=14;fillColor=#cdeb8b;strokeColor=#36393d;verticalAlign=top;fontStyle=1;" parent="1" vertex="1">
          <mxGeometry x="1830" y="448" width="1470" height="740" as="geometry" />
        </mxCell>
        <mxCell id="vy7EhUKRSJDdzfkEdfcL-32" value="Core" style="whiteSpace=wrap;html=1;rounded=0;shadow=0;comic=0;strokeWidth=1;fontFamily=Verdana;fontSize=14;fillColor=#dae8fc;strokeColor=#6c8ebf;verticalAlign=top;fontStyle=1" parent="1" vertex="1">
          <mxGeometry x="3099" y="778" width="178" height="110" as="geometry" />
        </mxCell>
        <mxCell id="vy7EhUKRSJDdzfkEdfcL-31" value="Distribution" style="whiteSpace=wrap;html=1;rounded=0;shadow=0;comic=0;strokeWidth=1;fontFamily=Verdana;fontSize=14;fillColor=#ffcc99;strokeColor=#36393d;verticalAlign=top;fontStyle=1" parent="1" vertex="1">
          <mxGeometry x="2680" y="606" width="200" height="470" as="geometry" />
        </mxCell>
        <mxCell id="vy7EhUKRSJDdzfkEdfcL-29" value="Access" style="whiteSpace=wrap;html=1;rounded=0;shadow=0;comic=0;strokeWidth=1;fontFamily=Verdana;fontSize=14;fillColor=#ffff88;strokeColor=#36393d;verticalAlign=top;fontStyle=1" parent="1" vertex="1">
          <mxGeometry x="2270" y="538" width="200" height="630" as="geometry" />
        </mxCell>
        <mxCell id="1c7a67bf8fd3230f-49" style="edgeStyle=none;html=1;labelBackgroundColor=none;startFill=0;endArrow=none;endFill=0;strokeWidth=4;fontFamily=Verdana;fontSize=12;exitX=1;exitY=0.5;exitDx=0;exitDy=0;exitPerimeter=0;entryX=0.054;entryY=0.251;entryDx=0;entryDy=0;entryPerimeter=0;" parent="1" source="vy7EhUKRSJDdzfkEdfcL-1" target="1c7a67bf8fd3230f-46" edge="1">
          <mxGeometry relative="1" as="geometry" />
        </mxCell>
        <mxCell id="1c7a67bf8fd3230f-46" value="" style="shape=mxgraph.cisco.routers.router;html=1;dashed=0;fillColor=#036897;strokeColor=#ffffff;strokeWidth=2;verticalLabelPosition=bottom;verticalAlign=top;rounded=0;shadow=0;comic=0;fontFamily=Verdana;fontSize=12;" parent="1" vertex="1">
          <mxGeometry x="3148" y="812.5" width="78" height="53" as="geometry" />
        </mxCell>
        <mxCell id="vy7EhUKRSJDdzfkEdfcL-1" value="SWITCH DISTRIBUCIÓN" style="shape=mxgraph.cisco.misc.route_switch_processor;html=1;dashed=0;fillColor=#036897;strokeColor=#ffffff;strokeWidth=2;verticalLabelPosition=bottom;verticalAlign=top;rounded=0;shadow=0;comic=0;fontFamily=Verdana;fontSize=12;" parent="1" vertex="1">
          <mxGeometry x="2750" y="658" width="60" height="90" as="geometry" />
        </mxCell>
        <mxCell id="vy7EhUKRSJDdzfkEdfcL-2" value="SWITCH DISTRIBUCIÓN" style="shape=mxgraph.cisco.misc.route_switch_processor;html=1;dashed=0;fillColor=#036897;strokeColor=#ffffff;strokeWidth=2;verticalLabelPosition=bottom;verticalAlign=top;rounded=0;shadow=0;comic=0;fontFamily=Verdana;fontSize=12;" parent="1" vertex="1">
          <mxGeometry x="2750" y="938" width="60" height="90" as="geometry" />
        </mxCell>
        <mxCell id="vy7EhUKRSJDdzfkEdfcL-6" style="edgeStyle=none;html=1;labelBackgroundColor=none;startFill=0;endArrow=none;endFill=0;strokeWidth=4;fontFamily=Verdana;fontSize=12;exitX=0.974;exitY=0.417;exitDx=0;exitDy=0;exitPerimeter=0;entryX=0.028;entryY=0.746;entryDx=0;entryDy=0;entryPerimeter=0;" parent="1" source="vy7EhUKRSJDdzfkEdfcL-2" target="1c7a67bf8fd3230f-46" edge="1">
          <mxGeometry relative="1" as="geometry">
            <mxPoint x="2800" y="563" as="sourcePoint" />
            <mxPoint x="3120" y="698" as="targetPoint" />
          </mxGeometry>
        </mxCell>
        <mxCell id="vy7EhUKRSJDdzfkEdfcL-12" value="SWITCH ACCESS" style="shape=mxgraph.cisco.switches.workgroup_switch;sketch=0;html=1;pointerEvents=1;dashed=0;fillColor=#036897;strokeColor=#ffffff;strokeWidth=2;verticalLabelPosition=bottom;verticalAlign=top;align=center;outlineConnect=0;" parent="1" vertex="1">
          <mxGeometry x="2319.5" y="978" width="101" height="50" as="geometry" />
        </mxCell>
        <mxCell id="vy7EhUKRSJDdzfkEdfcL-16" value="SWITCH ACCESS" style="shape=mxgraph.cisco.switches.workgroup_switch;sketch=0;html=1;pointerEvents=1;dashed=0;fillColor=#036897;strokeColor=#ffffff;strokeWidth=2;verticalLabelPosition=bottom;verticalAlign=top;align=center;outlineConnect=0;" parent="1" vertex="1">
          <mxGeometry x="2319.5" y="661.5" width="101" height="50" as="geometry" />
        </mxCell>
        <mxCell id="vy7EhUKRSJDdzfkEdfcL-17" style="edgeStyle=none;html=1;labelBackgroundColor=none;startFill=0;endArrow=none;endFill=0;strokeWidth=4;fontFamily=Verdana;fontSize=12;entryX=-0.027;entryY=0.688;entryDx=0;entryDy=0;entryPerimeter=0;" parent="1" source="vy7EhUKRSJDdzfkEdfcL-12" target="vy7EhUKRSJDdzfkEdfcL-2" edge="1">
          <mxGeometry relative="1" as="geometry">
            <mxPoint x="2420" y="1072" as="sourcePoint" />
            <mxPoint x="2762" y="978" as="targetPoint" />
          </mxGeometry>
        </mxCell>
        <mxCell id="vy7EhUKRSJDdzfkEdfcL-18" style="edgeStyle=none;html=1;labelBackgroundColor=none;startFill=0;endArrow=none;endFill=0;strokeWidth=4;fontFamily=Verdana;fontSize=12;entryX=-0.031;entryY=0.414;entryDx=0;entryDy=0;entryPerimeter=0;" parent="1" source="vy7EhUKRSJDdzfkEdfcL-16" target="vy7EhUKRSJDdzfkEdfcL-2" edge="1">
          <mxGeometry relative="1" as="geometry">
            <mxPoint x="2556" y="833" as="sourcePoint" />
            <mxPoint x="2884" y="761" as="targetPoint" />
          </mxGeometry>
        </mxCell>
        <mxCell id="vy7EhUKRSJDdzfkEdfcL-20" style="edgeStyle=none;html=1;labelBackgroundColor=none;startFill=0;endArrow=none;endFill=0;strokeWidth=4;fontFamily=Verdana;fontSize=12;entryX=-0.019;entryY=0.311;entryDx=0;entryDy=0;entryPerimeter=0;" parent="1" source="vy7EhUKRSJDdzfkEdfcL-16" target="vy7EhUKRSJDdzfkEdfcL-1" edge="1">
          <mxGeometry relative="1" as="geometry">
            <mxPoint x="2430" y="638" as="sourcePoint" />
            <mxPoint x="2782" y="975" as="targetPoint" />
          </mxGeometry>
        </mxCell>
        <mxCell id="vy7EhUKRSJDdzfkEdfcL-21" style="edgeStyle=none;html=1;labelBackgroundColor=none;startFill=0;endArrow=none;endFill=0;strokeWidth=4;fontFamily=Verdana;fontSize=12;entryX=0.029;entryY=0.756;entryDx=0;entryDy=0;entryPerimeter=0;" parent="1" source="vy7EhUKRSJDdzfkEdfcL-12" target="vy7EhUKRSJDdzfkEdfcL-1" edge="1">
          <mxGeometry relative="1" as="geometry">
            <mxPoint x="2400" y="1001" as="sourcePoint" />
            <mxPoint x="2790" y="908" as="targetPoint" />
          </mxGeometry>
        </mxCell>
        <mxCell id="vy7EhUKRSJDdzfkEdfcL-26" style="edgeStyle=none;html=1;labelBackgroundColor=none;startFill=0;endArrow=none;endFill=0;strokeWidth=4;fontFamily=Verdana;fontSize=12;entryX=0.759;entryY=0.863;entryDx=0;entryDy=0;entryPerimeter=0;exitX=0;exitY=0.5;exitDx=0;exitDy=0;exitPerimeter=0;" parent="1" source="vy7EhUKRSJDdzfkEdfcL-12" edge="1">
          <mxGeometry relative="1" as="geometry">
            <mxPoint x="2110" y="978" as="sourcePoint" />
            <mxPoint x="2153.6" y="944.2699999999998" as="targetPoint" />
          </mxGeometry>
        </mxCell>
        <mxCell id="vy7EhUKRSJDdzfkEdfcL-27" style="edgeStyle=none;html=1;labelBackgroundColor=none;startFill=0;endArrow=none;endFill=0;strokeWidth=4;fontFamily=Verdana;fontSize=12;entryX=0.754;entryY=0.181;entryDx=0;entryDy=0;entryPerimeter=0;" parent="1" source="vy7EhUKRSJDdzfkEdfcL-16" edge="1">
          <mxGeometry relative="1" as="geometry">
            <mxPoint x="2355" y="787" as="sourcePoint" />
            <mxPoint x="2151.6" y="746.49" as="targetPoint" />
          </mxGeometry>
        </mxCell>
        <mxCell id="vy7EhUKRSJDdzfkEdfcL-36" value="&lt;font style=&quot;font-size: 30px;&quot;&gt;SANTA ROSA DE COPÁN&lt;/font&gt;" style="whiteSpace=wrap;html=1;rounded=0;shadow=0;comic=0;strokeWidth=1;fontFamily=Verdana;fontSize=14;fillColor=#60a917;strokeColor=#2D7600;verticalAlign=top;fontStyle=1;fontColor=#ffffff;" parent="1" vertex="1">
          <mxGeometry x="3760" y="637.5" width="720" height="260" as="geometry" />
        </mxCell>
        <mxCell id="vy7EhUKRSJDdzfkEdfcL-37" value="" style="shape=mxgraph.cisco.routers.router;html=1;dashed=0;fillColor=#036897;strokeColor=#ffffff;strokeWidth=2;verticalLabelPosition=bottom;verticalAlign=top;rounded=0;shadow=0;comic=0;fontFamily=Verdana;fontSize=12;" parent="1" vertex="1">
          <mxGeometry x="3860" y="741" width="78" height="53" as="geometry" />
        </mxCell>
        <mxCell id="vy7EhUKRSJDdzfkEdfcL-38" value="&lt;font style=&quot;font-size: 30px;&quot;&gt;CHOLUTECA&lt;/font&gt;" style="whiteSpace=wrap;html=1;rounded=0;shadow=0;comic=0;strokeWidth=1;fontFamily=Verdana;fontSize=14;fillColor=#60a917;strokeColor=#2D7600;verticalAlign=top;fontStyle=1;fontColor=#ffffff;" parent="1" vertex="1">
          <mxGeometry x="3760" y="940.5" width="720" height="260" as="geometry" />
        </mxCell>
        <mxCell id="vy7EhUKRSJDdzfkEdfcL-39" value="" style="shape=mxgraph.cisco.routers.router;html=1;dashed=0;fillColor=#036897;strokeColor=#ffffff;strokeWidth=2;verticalLabelPosition=bottom;verticalAlign=top;rounded=0;shadow=0;comic=0;fontFamily=Verdana;fontSize=12;" parent="1" vertex="1">
          <mxGeometry x="3870" y="1044" width="78" height="53" as="geometry" />
        </mxCell>
        <mxCell id="vy7EhUKRSJDdzfkEdfcL-40" value="&lt;font style=&quot;font-size: 30px;&quot;&gt;LA CEIBA&lt;/font&gt;" style="whiteSpace=wrap;html=1;rounded=0;shadow=0;comic=0;strokeWidth=1;fontFamily=Verdana;fontSize=14;fillColor=#60a917;strokeColor=#2D7600;verticalAlign=top;fontStyle=1;fontColor=#ffffff;" parent="1" vertex="1">
          <mxGeometry x="3760" y="1240.5" width="720" height="260" as="geometry" />
        </mxCell>
        <mxCell id="vy7EhUKRSJDdzfkEdfcL-41" value="" style="shape=mxgraph.cisco.routers.router;html=1;dashed=0;fillColor=#036897;strokeColor=#ffffff;strokeWidth=2;verticalLabelPosition=bottom;verticalAlign=top;rounded=0;shadow=0;comic=0;fontFamily=Verdana;fontSize=12;" parent="1" vertex="1">
          <mxGeometry x="3870" y="1344" width="78" height="53" as="geometry" />
        </mxCell>
        <mxCell id="vy7EhUKRSJDdzfkEdfcL-42" value="&lt;font style=&quot;font-size: 30px;&quot;&gt;COMAYAGUA&lt;/font&gt;" style="whiteSpace=wrap;html=1;rounded=0;shadow=0;comic=0;strokeWidth=1;fontFamily=Verdana;fontSize=14;fillColor=#1ba1e2;strokeColor=#006EAF;verticalAlign=top;fontStyle=1;fontColor=#ffffff;" parent="1" vertex="1">
          <mxGeometry x="3760" y="1540.5" width="720" height="260" as="geometry" />
        </mxCell>
        <mxCell id="vy7EhUKRSJDdzfkEdfcL-43" value="" style="shape=mxgraph.cisco.routers.router;html=1;dashed=0;fillColor=#036897;strokeColor=#ffffff;strokeWidth=2;verticalLabelPosition=bottom;verticalAlign=top;rounded=0;shadow=0;comic=0;fontFamily=Verdana;fontSize=12;" parent="1" vertex="1">
          <mxGeometry x="3870" y="1644" width="78" height="53" as="geometry" />
        </mxCell>
        <mxCell id="vy7EhUKRSJDdzfkEdfcL-45" value="EIGRP" style="text;html=1;align=center;verticalAlign=middle;resizable=0;points=[];autosize=1;strokeColor=none;fillColor=none;fontSize=70;fontStyle=1" parent="1" vertex="1">
          <mxGeometry x="4490" y="1036.75" width="240" height="100" as="geometry" />
        </mxCell>
        <mxCell id="vy7EhUKRSJDdzfkEdfcL-46" value="EIGRP" style="text;html=1;align=center;verticalAlign=middle;resizable=0;points=[];autosize=1;strokeColor=none;fillColor=none;fontSize=70;fontStyle=1" parent="1" vertex="1">
          <mxGeometry x="4490" y="717.5" width="240" height="100" as="geometry" />
        </mxCell>
        <mxCell id="vy7EhUKRSJDdzfkEdfcL-47" value="EIGRP" style="text;html=1;align=center;verticalAlign=middle;resizable=0;points=[];autosize=1;strokeColor=none;fillColor=none;fontSize=70;fontStyle=1" parent="1" vertex="1">
          <mxGeometry x="4490" y="1317.25" width="240" height="100" as="geometry" />
        </mxCell>
        <mxCell id="vy7EhUKRSJDdzfkEdfcL-48" value="STATIC" style="text;html=1;align=center;verticalAlign=middle;resizable=0;points=[];autosize=1;strokeColor=none;fillColor=none;fontSize=70;fontStyle=1" parent="1" vertex="1">
          <mxGeometry x="4480" y="1613" width="260" height="100" as="geometry" />
        </mxCell>
        <mxCell id="vy7EhUKRSJDdzfkEdfcL-49" style="edgeStyle=none;html=1;labelBackgroundColor=none;startFill=0;endArrow=none;endFill=0;strokeWidth=4;fontFamily=Verdana;fontSize=12;exitX=0.974;exitY=0.177;exitDx=0;exitDy=0;exitPerimeter=0;entryX=0;entryY=0.5;entryDx=0;entryDy=0;entryPerimeter=0;" parent="1" source="1c7a67bf8fd3230f-46" target="vy7EhUKRSJDdzfkEdfcL-37" edge="1">
          <mxGeometry relative="1" as="geometry">
            <mxPoint x="3280" y="1159" as="sourcePoint" />
            <mxPoint x="3781" y="634" as="targetPoint" />
          </mxGeometry>
        </mxCell>
        <mxCell id="vy7EhUKRSJDdzfkEdfcL-50" style="edgeStyle=none;html=1;labelBackgroundColor=none;startFill=0;endArrow=none;endFill=0;strokeWidth=4;fontFamily=Verdana;fontSize=12;exitX=1;exitY=0.5;exitDx=0;exitDy=0;exitPerimeter=0;entryX=0;entryY=0.5;entryDx=0;entryDy=0;entryPerimeter=0;" parent="1" source="1c7a67bf8fd3230f-46" target="vy7EhUKRSJDdzfkEdfcL-39" edge="1">
          <mxGeometry relative="1" as="geometry">
            <mxPoint x="3238" y="1130" as="sourcePoint" />
            <mxPoint x="3732" y="898" as="targetPoint" />
          </mxGeometry>
        </mxCell>
        <mxCell id="vy7EhUKRSJDdzfkEdfcL-51" style="edgeStyle=none;html=1;labelBackgroundColor=none;startFill=0;endArrow=none;endFill=0;strokeWidth=4;fontFamily=Verdana;fontSize=12;entryX=0;entryY=0.5;entryDx=0;entryDy=0;entryPerimeter=0;exitX=0.83;exitY=0.781;exitDx=0;exitDy=0;exitPerimeter=0;" parent="1" source="1c7a67bf8fd3230f-46" target="vy7EhUKRSJDdzfkEdfcL-41" edge="1">
          <mxGeometry relative="1" as="geometry">
            <mxPoint x="3248" y="1128" as="sourcePoint" />
            <mxPoint x="3740" y="1181" as="targetPoint" />
          </mxGeometry>
        </mxCell>
        <mxCell id="vy7EhUKRSJDdzfkEdfcL-52" style="edgeStyle=none;html=1;labelBackgroundColor=none;startFill=0;endArrow=none;endFill=0;strokeWidth=4;fontFamily=Verdana;fontSize=12;entryX=0;entryY=0.5;entryDx=0;entryDy=0;entryPerimeter=0;exitX=0.663;exitY=0.928;exitDx=0;exitDy=0;exitPerimeter=0;" parent="1" source="1c7a67bf8fd3230f-46" target="vy7EhUKRSJDdzfkEdfcL-43" edge="1">
          <mxGeometry relative="1" as="geometry">
            <mxPoint x="3225" y="1179" as="sourcePoint" />
            <mxPoint x="3730" y="1518" as="targetPoint" />
          </mxGeometry>
        </mxCell>
        <mxCell id="vy7EhUKRSJDdzfkEdfcL-60" value="WAN &lt;br&gt;DUALSTACK" style="text;html=1;align=center;verticalAlign=middle;resizable=0;points=[];autosize=1;strokeColor=none;fillColor=none;fontSize=20;fontStyle=1" parent="1" vertex="1">
          <mxGeometry x="3320" y="1218" width="140" height="60" as="geometry" />
        </mxCell>
        <mxCell id="H7WxGsa-LHLX9y35NHfY-22" value="&lt;font style=&quot;font-size: 40px;&quot;&gt;SAN PEDRO SULA - BACKUP DATACENTER&lt;/font&gt;" style="whiteSpace=wrap;html=1;rounded=0;shadow=0;comic=0;strokeWidth=1;fontFamily=Verdana;fontSize=14;fillColor=#fa6800;strokeColor=#C73500;verticalAlign=top;fontStyle=1;fontColor=#000000;" vertex="1" parent="1">
          <mxGeometry x="1830" y="1263" width="1470" height="740" as="geometry" />
        </mxCell>
        <mxCell id="H7WxGsa-LHLX9y35NHfY-23" value="Core" style="whiteSpace=wrap;html=1;rounded=0;shadow=0;comic=0;strokeWidth=1;fontFamily=Verdana;fontSize=14;fillColor=#dae8fc;strokeColor=#6c8ebf;verticalAlign=top;fontStyle=1" vertex="1" parent="1">
          <mxGeometry x="3099" y="1593" width="178" height="110" as="geometry" />
        </mxCell>
        <mxCell id="H7WxGsa-LHLX9y35NHfY-24" value="Distribution" style="whiteSpace=wrap;html=1;rounded=0;shadow=0;comic=0;strokeWidth=1;fontFamily=Verdana;fontSize=14;fillColor=#ffcc99;strokeColor=#36393d;verticalAlign=top;fontStyle=1" vertex="1" parent="1">
          <mxGeometry x="2680" y="1421" width="200" height="470" as="geometry" />
        </mxCell>
        <mxCell id="H7WxGsa-LHLX9y35NHfY-25" value="Access" style="whiteSpace=wrap;html=1;rounded=0;shadow=0;comic=0;strokeWidth=1;fontFamily=Verdana;fontSize=14;fillColor=#ffff88;strokeColor=#36393d;verticalAlign=top;fontStyle=1" vertex="1" parent="1">
          <mxGeometry x="2270" y="1353" width="200" height="630" as="geometry" />
        </mxCell>
        <mxCell id="H7WxGsa-LHLX9y35NHfY-26" style="edgeStyle=none;html=1;labelBackgroundColor=none;startFill=0;endArrow=none;endFill=0;strokeWidth=4;fontFamily=Verdana;fontSize=12;exitX=1;exitY=0.5;exitDx=0;exitDy=0;exitPerimeter=0;entryX=0.054;entryY=0.251;entryDx=0;entryDy=0;entryPerimeter=0;" edge="1" parent="1" source="H7WxGsa-LHLX9y35NHfY-28">
          <mxGeometry relative="1" as="geometry">
            <mxPoint x="3152.2120000000004" y="1640.8029999999994" as="targetPoint" />
          </mxGeometry>
        </mxCell>
        <mxCell id="H7WxGsa-LHLX9y35NHfY-28" value="SWITCH DISTRIBUCIÓN" style="shape=mxgraph.cisco.misc.route_switch_processor;html=1;dashed=0;fillColor=#036897;strokeColor=#ffffff;strokeWidth=2;verticalLabelPosition=bottom;verticalAlign=top;rounded=0;shadow=0;comic=0;fontFamily=Verdana;fontSize=12;" vertex="1" parent="1">
          <mxGeometry x="2750" y="1473" width="60" height="90" as="geometry" />
        </mxCell>
        <mxCell id="H7WxGsa-LHLX9y35NHfY-29" value="SWITCH DISTRIBUCIÓN" style="shape=mxgraph.cisco.misc.route_switch_processor;html=1;dashed=0;fillColor=#036897;strokeColor=#ffffff;strokeWidth=2;verticalLabelPosition=bottom;verticalAlign=top;rounded=0;shadow=0;comic=0;fontFamily=Verdana;fontSize=12;" vertex="1" parent="1">
          <mxGeometry x="2750" y="1753" width="60" height="90" as="geometry" />
        </mxCell>
        <mxCell id="H7WxGsa-LHLX9y35NHfY-30" style="edgeStyle=none;html=1;labelBackgroundColor=none;startFill=0;endArrow=none;endFill=0;strokeWidth=4;fontFamily=Verdana;fontSize=12;exitX=0.974;exitY=0.417;exitDx=0;exitDy=0;exitPerimeter=0;entryX=0.028;entryY=0.746;entryDx=0;entryDy=0;entryPerimeter=0;" edge="1" parent="1" source="H7WxGsa-LHLX9y35NHfY-29">
          <mxGeometry relative="1" as="geometry">
            <mxPoint x="2800" y="1378" as="sourcePoint" />
            <mxPoint x="3150.184" y="1667.0379999999996" as="targetPoint" />
          </mxGeometry>
        </mxCell>
        <mxCell id="H7WxGsa-LHLX9y35NHfY-31" value="SWITCH ACCESS" style="shape=mxgraph.cisco.switches.workgroup_switch;sketch=0;html=1;pointerEvents=1;dashed=0;fillColor=#036897;strokeColor=#ffffff;strokeWidth=2;verticalLabelPosition=bottom;verticalAlign=top;align=center;outlineConnect=0;" vertex="1" parent="1">
          <mxGeometry x="2319.5" y="1793" width="101" height="50" as="geometry" />
        </mxCell>
        <mxCell id="H7WxGsa-LHLX9y35NHfY-32" value="SWITCH ACCESS" style="shape=mxgraph.cisco.switches.workgroup_switch;sketch=0;html=1;pointerEvents=1;dashed=0;fillColor=#036897;strokeColor=#ffffff;strokeWidth=2;verticalLabelPosition=bottom;verticalAlign=top;align=center;outlineConnect=0;" vertex="1" parent="1">
          <mxGeometry x="2319.5" y="1476.5" width="101" height="50" as="geometry" />
        </mxCell>
        <mxCell id="H7WxGsa-LHLX9y35NHfY-33" style="edgeStyle=none;html=1;labelBackgroundColor=none;startFill=0;endArrow=none;endFill=0;strokeWidth=4;fontFamily=Verdana;fontSize=12;entryX=-0.027;entryY=0.688;entryDx=0;entryDy=0;entryPerimeter=0;" edge="1" parent="1" source="H7WxGsa-LHLX9y35NHfY-31" target="H7WxGsa-LHLX9y35NHfY-29">
          <mxGeometry relative="1" as="geometry">
            <mxPoint x="2420" y="1887" as="sourcePoint" />
            <mxPoint x="2762" y="1793" as="targetPoint" />
          </mxGeometry>
        </mxCell>
        <mxCell id="H7WxGsa-LHLX9y35NHfY-34" style="edgeStyle=none;html=1;labelBackgroundColor=none;startFill=0;endArrow=none;endFill=0;strokeWidth=4;fontFamily=Verdana;fontSize=12;entryX=-0.031;entryY=0.414;entryDx=0;entryDy=0;entryPerimeter=0;" edge="1" parent="1" source="H7WxGsa-LHLX9y35NHfY-32" target="H7WxGsa-LHLX9y35NHfY-29">
          <mxGeometry relative="1" as="geometry">
            <mxPoint x="2556" y="1648" as="sourcePoint" />
            <mxPoint x="2884" y="1576" as="targetPoint" />
          </mxGeometry>
        </mxCell>
        <mxCell id="H7WxGsa-LHLX9y35NHfY-35" style="edgeStyle=none;html=1;labelBackgroundColor=none;startFill=0;endArrow=none;endFill=0;strokeWidth=4;fontFamily=Verdana;fontSize=12;entryX=-0.019;entryY=0.311;entryDx=0;entryDy=0;entryPerimeter=0;" edge="1" parent="1" source="H7WxGsa-LHLX9y35NHfY-32" target="H7WxGsa-LHLX9y35NHfY-28">
          <mxGeometry relative="1" as="geometry">
            <mxPoint x="2430" y="1453" as="sourcePoint" />
            <mxPoint x="2782" y="1790" as="targetPoint" />
          </mxGeometry>
        </mxCell>
        <mxCell id="H7WxGsa-LHLX9y35NHfY-36" style="edgeStyle=none;html=1;labelBackgroundColor=none;startFill=0;endArrow=none;endFill=0;strokeWidth=4;fontFamily=Verdana;fontSize=12;entryX=0.029;entryY=0.756;entryDx=0;entryDy=0;entryPerimeter=0;" edge="1" parent="1" source="H7WxGsa-LHLX9y35NHfY-31" target="H7WxGsa-LHLX9y35NHfY-28">
          <mxGeometry relative="1" as="geometry">
            <mxPoint x="2400" y="1816" as="sourcePoint" />
            <mxPoint x="2790" y="1723" as="targetPoint" />
          </mxGeometry>
        </mxCell>
        <mxCell id="H7WxGsa-LHLX9y35NHfY-39" style="edgeStyle=none;html=1;labelBackgroundColor=none;startFill=0;endArrow=none;endFill=0;strokeWidth=4;fontFamily=Verdana;fontSize=12;entryX=0.759;entryY=0.863;entryDx=0;entryDy=0;entryPerimeter=0;exitX=0;exitY=0.5;exitDx=0;exitDy=0;exitPerimeter=0;" edge="1" parent="1" source="H7WxGsa-LHLX9y35NHfY-31">
          <mxGeometry relative="1" as="geometry">
            <mxPoint x="2110" y="1793" as="sourcePoint" />
            <mxPoint x="2153.6" y="1759.27" as="targetPoint" />
          </mxGeometry>
        </mxCell>
        <mxCell id="H7WxGsa-LHLX9y35NHfY-40" style="edgeStyle=none;html=1;labelBackgroundColor=none;startFill=0;endArrow=none;endFill=0;strokeWidth=4;fontFamily=Verdana;fontSize=12;entryX=0.754;entryY=0.181;entryDx=0;entryDy=0;entryPerimeter=0;" edge="1" parent="1" source="H7WxGsa-LHLX9y35NHfY-32">
          <mxGeometry relative="1" as="geometry">
            <mxPoint x="2355" y="1602" as="sourcePoint" />
            <mxPoint x="2151.6" y="1561.4899999999998" as="targetPoint" />
          </mxGeometry>
        </mxCell>
        <mxCell id="vy7EhUKRSJDdzfkEdfcL-4" value="" style="shape=mxgraph.cisco.routers.router;html=1;dashed=0;fillColor=#036897;strokeColor=#ffffff;strokeWidth=2;verticalLabelPosition=bottom;verticalAlign=top;rounded=0;shadow=0;comic=0;fontFamily=Verdana;fontSize=12;" parent="1" vertex="1">
          <mxGeometry x="3149" y="1629.5" width="78" height="53" as="geometry" />
        </mxCell>
        <mxCell id="vy7EhUKRSJDdzfkEdfcL-56" style="edgeStyle=none;html=1;labelBackgroundColor=none;startFill=0;endArrow=none;endFill=0;strokeWidth=4;fontFamily=Verdana;fontSize=12;entryX=-0.031;entryY=0.815;entryDx=0;entryDy=0;entryPerimeter=0;strokeColor=light-dark(#ff0000, #ededed);exitX=0.9;exitY=0.147;exitDx=0;exitDy=0;exitPerimeter=0;" parent="1" target="vy7EhUKRSJDdzfkEdfcL-37" edge="1" source="vy7EhUKRSJDdzfkEdfcL-4">
          <mxGeometry relative="1" as="geometry">
            <mxPoint x="3240" y="1218" as="sourcePoint" />
            <mxPoint x="3740" y="878" as="targetPoint" />
          </mxGeometry>
        </mxCell>
        <mxCell id="vy7EhUKRSJDdzfkEdfcL-57" style="edgeStyle=none;html=1;labelBackgroundColor=none;startFill=0;endArrow=none;endFill=0;strokeWidth=4;fontFamily=Verdana;fontSize=12;exitX=0.997;exitY=0.285;exitDx=0;exitDy=0;exitPerimeter=0;entryX=-0.072;entryY=0.728;entryDx=0;entryDy=0;entryPerimeter=0;strokeColor=light-dark(#ff0000, #ededed);" parent="1" source="vy7EhUKRSJDdzfkEdfcL-4" target="vy7EhUKRSJDdzfkEdfcL-39" edge="1">
          <mxGeometry relative="1" as="geometry">
            <mxPoint x="3250" y="1250" as="sourcePoint" />
            <mxPoint x="3742" y="1303" as="targetPoint" />
          </mxGeometry>
        </mxCell>
        <mxCell id="vy7EhUKRSJDdzfkEdfcL-58" style="edgeStyle=none;html=1;labelBackgroundColor=none;startFill=0;endArrow=none;endFill=0;strokeWidth=4;fontFamily=Verdana;fontSize=12;entryX=0;entryY=0.5;entryDx=0;entryDy=0;entryPerimeter=0;strokeColor=light-dark(#ff0000, #ededed);exitX=1;exitY=0.5;exitDx=0;exitDy=0;exitPerimeter=0;" parent="1" source="vy7EhUKRSJDdzfkEdfcL-4" target="vy7EhUKRSJDdzfkEdfcL-41" edge="1">
          <mxGeometry relative="1" as="geometry">
            <mxPoint x="3230" y="1678" as="sourcePoint" />
            <mxPoint x="3730" y="1238" as="targetPoint" />
          </mxGeometry>
        </mxCell>
        <mxCell id="vy7EhUKRSJDdzfkEdfcL-59" style="edgeStyle=none;html=1;labelBackgroundColor=none;startFill=0;endArrow=none;endFill=0;strokeWidth=4;fontFamily=Verdana;fontSize=12;entryX=0.021;entryY=0.699;entryDx=0;entryDy=0;entryPerimeter=0;exitX=0.994;exitY=0.733;exitDx=0;exitDy=0;exitPerimeter=0;strokeColor=light-dark(#ff0000, #ededed);" parent="1" source="vy7EhUKRSJDdzfkEdfcL-4" target="vy7EhUKRSJDdzfkEdfcL-43" edge="1">
          <mxGeometry relative="1" as="geometry">
            <mxPoint x="3200" y="1278" as="sourcePoint" />
            <mxPoint x="3718" y="1909" as="targetPoint" />
          </mxGeometry>
        </mxCell>
        <mxCell id="H7WxGsa-LHLX9y35NHfY-44" value="" style="shape=mxgraph.cisco.switches.workgroup_switch;sketch=0;html=1;pointerEvents=1;dashed=0;fillColor=#036897;strokeColor=#ffffff;strokeWidth=2;verticalLabelPosition=bottom;verticalAlign=top;align=center;outlineConnect=0;" vertex="1" parent="1">
          <mxGeometry x="4040" y="744" width="101" height="50" as="geometry" />
        </mxCell>
        <mxCell id="H7WxGsa-LHLX9y35NHfY-47" style="edgeStyle=none;html=1;labelBackgroundColor=none;startFill=0;endArrow=none;endFill=0;strokeWidth=2;fontFamily=Verdana;fontSize=12;exitX=1;exitY=0.5;exitDx=0;exitDy=0;exitPerimeter=0;" edge="1" parent="1" source="vy7EhUKRSJDdzfkEdfcL-37" target="H7WxGsa-LHLX9y35NHfY-44">
          <mxGeometry relative="1" as="geometry">
            <mxPoint x="3800" y="784" as="sourcePoint" />
            <mxPoint x="4030" y="774" as="targetPoint" />
          </mxGeometry>
        </mxCell>
        <mxCell id="H7WxGsa-LHLX9y35NHfY-49" style="edgeStyle=none;html=1;labelBackgroundColor=none;startFill=0;endArrow=none;endFill=0;strokeWidth=2;fontFamily=Verdana;fontSize=12;entryX=0.98;entryY=0.5;entryDx=0;entryDy=0;entryPerimeter=0;exitX=0.065;exitY=0.472;exitDx=0;exitDy=0;exitPerimeter=0;" edge="1" parent="1" target="H7WxGsa-LHLX9y35NHfY-44">
          <mxGeometry relative="1" as="geometry">
            <mxPoint x="4207.55" y="768.498" as="sourcePoint" />
            <mxPoint x="4243" y="768" as="targetPoint" />
          </mxGeometry>
        </mxCell>
        <mxCell id="H7WxGsa-LHLX9y35NHfY-52" value="" style="shape=mxgraph.cisco.switches.workgroup_switch;sketch=0;html=1;pointerEvents=1;dashed=0;fillColor=#036897;strokeColor=#ffffff;strokeWidth=2;verticalLabelPosition=bottom;verticalAlign=top;align=center;outlineConnect=0;" vertex="1" parent="1">
          <mxGeometry x="4050" y="1049" width="101" height="50" as="geometry" />
        </mxCell>
        <mxCell id="H7WxGsa-LHLX9y35NHfY-66" value="" style="shape=cube;whiteSpace=wrap;html=1;boundedLbl=1;backgroundOutline=1;darkOpacity=0.05;darkOpacity2=0.1;" vertex="1" parent="1">
          <mxGeometry x="1860" y="731.75" width="330" height="228.25" as="geometry" />
        </mxCell>
        <mxCell id="H7WxGsa-LHLX9y35NHfY-53" style="edgeStyle=none;html=1;labelBackgroundColor=none;startFill=0;endArrow=none;endFill=0;strokeWidth=2;fontFamily=Verdana;fontSize=12;exitX=1;exitY=0.5;exitDx=0;exitDy=0;exitPerimeter=0;" edge="1" parent="1" target="H7WxGsa-LHLX9y35NHfY-52">
          <mxGeometry relative="1" as="geometry">
            <mxPoint x="3948" y="1073" as="sourcePoint" />
            <mxPoint x="4040" y="1079" as="targetPoint" />
          </mxGeometry>
        </mxCell>
        <mxCell id="H7WxGsa-LHLX9y35NHfY-54" style="edgeStyle=none;html=1;labelBackgroundColor=none;startFill=0;endArrow=none;endFill=0;strokeWidth=2;fontFamily=Verdana;fontSize=12;entryX=0.98;entryY=0.5;entryDx=0;entryDy=0;entryPerimeter=0;exitX=0.065;exitY=0.472;exitDx=0;exitDy=0;exitPerimeter=0;" edge="1" parent="1" target="H7WxGsa-LHLX9y35NHfY-52">
          <mxGeometry relative="1" as="geometry">
            <mxPoint x="4217.55" y="1073.498" as="sourcePoint" />
            <mxPoint x="4253" y="1073" as="targetPoint" />
          </mxGeometry>
        </mxCell>
        <mxCell id="H7WxGsa-LHLX9y35NHfY-57" value="" style="shape=mxgraph.cisco.switches.workgroup_switch;sketch=0;html=1;pointerEvents=1;dashed=0;fillColor=#036897;strokeColor=#ffffff;strokeWidth=2;verticalLabelPosition=bottom;verticalAlign=top;align=center;outlineConnect=0;" vertex="1" parent="1">
          <mxGeometry x="4050" y="1342.25" width="101" height="50" as="geometry" />
        </mxCell>
        <mxCell id="H7WxGsa-LHLX9y35NHfY-58" style="edgeStyle=none;html=1;labelBackgroundColor=none;startFill=0;endArrow=none;endFill=0;strokeWidth=2;fontFamily=Verdana;fontSize=12;exitX=1;exitY=0.5;exitDx=0;exitDy=0;exitPerimeter=0;" edge="1" parent="1" target="H7WxGsa-LHLX9y35NHfY-57">
          <mxGeometry relative="1" as="geometry">
            <mxPoint x="3948" y="1366.25" as="sourcePoint" />
            <mxPoint x="4040" y="1372.25" as="targetPoint" />
          </mxGeometry>
        </mxCell>
        <mxCell id="H7WxGsa-LHLX9y35NHfY-59" style="edgeStyle=none;html=1;labelBackgroundColor=none;startFill=0;endArrow=none;endFill=0;strokeWidth=2;fontFamily=Verdana;fontSize=12;entryX=0.98;entryY=0.5;entryDx=0;entryDy=0;entryPerimeter=0;exitX=0.065;exitY=0.472;exitDx=0;exitDy=0;exitPerimeter=0;" edge="1" parent="1" target="H7WxGsa-LHLX9y35NHfY-57">
          <mxGeometry relative="1" as="geometry">
            <mxPoint x="4217.55" y="1366.748" as="sourcePoint" />
            <mxPoint x="4253" y="1366.25" as="targetPoint" />
          </mxGeometry>
        </mxCell>
        <mxCell id="H7WxGsa-LHLX9y35NHfY-62" value="" style="shape=mxgraph.cisco.switches.workgroup_switch;sketch=0;html=1;pointerEvents=1;dashed=0;fillColor=#036897;strokeColor=#ffffff;strokeWidth=2;verticalLabelPosition=bottom;verticalAlign=top;align=center;outlineConnect=0;" vertex="1" parent="1">
          <mxGeometry x="4050" y="1640.5" width="101" height="50" as="geometry" />
        </mxCell>
        <mxCell id="H7WxGsa-LHLX9y35NHfY-63" style="edgeStyle=none;html=1;labelBackgroundColor=none;startFill=0;endArrow=none;endFill=0;strokeWidth=2;fontFamily=Verdana;fontSize=12;exitX=1;exitY=0.5;exitDx=0;exitDy=0;exitPerimeter=0;" edge="1" parent="1" target="H7WxGsa-LHLX9y35NHfY-62">
          <mxGeometry relative="1" as="geometry">
            <mxPoint x="3948" y="1664.5" as="sourcePoint" />
            <mxPoint x="4040" y="1670.5" as="targetPoint" />
          </mxGeometry>
        </mxCell>
        <mxCell id="H7WxGsa-LHLX9y35NHfY-64" style="edgeStyle=none;html=1;labelBackgroundColor=none;startFill=0;endArrow=none;endFill=0;strokeWidth=2;fontFamily=Verdana;fontSize=12;entryX=0.98;entryY=0.5;entryDx=0;entryDy=0;entryPerimeter=0;exitX=0.065;exitY=0.472;exitDx=0;exitDy=0;exitPerimeter=0;" edge="1" parent="1" target="H7WxGsa-LHLX9y35NHfY-62">
          <mxGeometry relative="1" as="geometry">
            <mxPoint x="4217.55" y="1664.9979999999996" as="sourcePoint" />
            <mxPoint x="4253" y="1664.5" as="targetPoint" />
          </mxGeometry>
        </mxCell>
        <mxCell id="vy7EhUKRSJDdzfkEdfcL-25" value="VLAN 100&lt;div&gt;VLAN 200&lt;br&gt;VLAN 300&lt;br&gt;VLAN 400&lt;/div&gt;" style="text;html=1;align=center;verticalAlign=middle;resizable=0;points=[];autosize=1;strokeColor=none;fillColor=none;fontSize=30;fontStyle=1" parent="1" vertex="1">
          <mxGeometry x="1945" y="773" width="160" height="160" as="geometry" />
        </mxCell>
        <mxCell id="H7WxGsa-LHLX9y35NHfY-67" value="" style="shape=cube;whiteSpace=wrap;html=1;boundedLbl=1;backgroundOutline=1;darkOpacity=0.05;darkOpacity2=0.1;" vertex="1" parent="1">
          <mxGeometry x="1860" y="1551.38" width="330" height="228.25" as="geometry" />
        </mxCell>
        <mxCell id="H7WxGsa-LHLX9y35NHfY-68" value="VLAN 100&lt;div&gt;VLAN 200&lt;br&gt;VLAN 300&lt;br&gt;VLAN 400&lt;/div&gt;" style="text;html=1;align=center;verticalAlign=middle;resizable=0;points=[];autosize=1;strokeColor=none;fillColor=none;fontSize=30;fontStyle=1" vertex="1" parent="1">
          <mxGeometry x="1945" y="1592.63" width="160" height="160" as="geometry" />
        </mxCell>
        <mxCell id="H7WxGsa-LHLX9y35NHfY-69" value="" style="shape=cube;whiteSpace=wrap;html=1;boundedLbl=1;backgroundOutline=1;darkOpacity=0.05;darkOpacity2=0.1;" vertex="1" parent="1">
          <mxGeometry x="4205" y="1005.6300000000001" width="230" height="136.75" as="geometry" />
        </mxCell>
        <mxCell id="H7WxGsa-LHLX9y35NHfY-70" value="VLAN 100&lt;div&gt;VLAN 200&lt;br&gt;VLAN 300&lt;br&gt;VLAN 400&lt;/div&gt;" style="text;html=1;align=center;verticalAlign=middle;resizable=0;points=[];autosize=1;strokeColor=none;fillColor=none;fontSize=21;fontStyle=1" vertex="1" parent="1">
          <mxGeometry x="4265" y="1032.38" width="120" height="110" as="geometry" />
        </mxCell>
        <mxCell id="H7WxGsa-LHLX9y35NHfY-71" value="" style="shape=cube;whiteSpace=wrap;html=1;boundedLbl=1;backgroundOutline=1;darkOpacity=0.05;darkOpacity2=0.1;" vertex="1" parent="1">
          <mxGeometry x="4200" y="700.63" width="230" height="136.75" as="geometry" />
        </mxCell>
        <mxCell id="H7WxGsa-LHLX9y35NHfY-72" value="VLAN 100&lt;div&gt;VLAN 200&lt;br&gt;VLAN 300&lt;br&gt;VLAN 400&lt;/div&gt;" style="text;html=1;align=center;verticalAlign=middle;resizable=0;points=[];autosize=1;strokeColor=none;fillColor=none;fontSize=21;fontStyle=1" vertex="1" parent="1">
          <mxGeometry x="4260" y="727.38" width="120" height="110" as="geometry" />
        </mxCell>
        <mxCell id="H7WxGsa-LHLX9y35NHfY-73" value="" style="shape=cube;whiteSpace=wrap;html=1;boundedLbl=1;backgroundOutline=1;darkOpacity=0.05;darkOpacity2=0.1;" vertex="1" parent="1">
          <mxGeometry x="4200" y="1298.88" width="230" height="136.75" as="geometry" />
        </mxCell>
        <mxCell id="H7WxGsa-LHLX9y35NHfY-74" value="VLAN 100&lt;div&gt;VLAN 200&lt;br&gt;VLAN 300&lt;br&gt;VLAN 400&lt;/div&gt;" style="text;html=1;align=center;verticalAlign=middle;resizable=0;points=[];autosize=1;strokeColor=none;fillColor=none;fontSize=21;fontStyle=1" vertex="1" parent="1">
          <mxGeometry x="4260" y="1325.63" width="120" height="110" as="geometry" />
        </mxCell>
        <mxCell id="H7WxGsa-LHLX9y35NHfY-75" value="" style="shape=cube;whiteSpace=wrap;html=1;boundedLbl=1;backgroundOutline=1;darkOpacity=0.05;darkOpacity2=0.1;" vertex="1" parent="1">
          <mxGeometry x="4205" y="1599.62" width="230" height="136.75" as="geometry" />
        </mxCell>
        <mxCell id="H7WxGsa-LHLX9y35NHfY-76" value="VLAN 100&lt;div&gt;VLAN 200&lt;br&gt;VLAN 300&lt;br&gt;VLAN 400&lt;/div&gt;" style="text;html=1;align=center;verticalAlign=middle;resizable=0;points=[];autosize=1;strokeColor=none;fillColor=none;fontSize=21;fontStyle=1" vertex="1" parent="1">
          <mxGeometry x="4265" y="1626.37" width="120" height="110" as="geometry" />
        </mxCell>
        <mxCell id="H7WxGsa-LHLX9y35NHfY-77" value="" style="ellipse;shape=cloud;whiteSpace=wrap;html=1;strokeWidth=6;" vertex="1" parent="1">
          <mxGeometry x="710" y="1110" width="420" height="253" as="geometry" />
        </mxCell>
        <mxCell id="H7WxGsa-LHLX9y35NHfY-78" value="" style="shape=mxgraph.cisco.routers.router;html=1;dashed=0;fillColor=#036897;strokeColor=#ffffff;strokeWidth=2;verticalLabelPosition=bottom;verticalAlign=top;rounded=0;shadow=0;comic=0;fontFamily=Verdana;fontSize=12;" vertex="1" parent="1">
          <mxGeometry x="1400" y="1166.38" width="200" height="132.5" as="geometry" />
        </mxCell>
        <mxCell id="H7WxGsa-LHLX9y35NHfY-80" style="edgeStyle=none;html=1;labelBackgroundColor=none;startFill=0;endArrow=none;endFill=0;strokeWidth=5;fontFamily=Verdana;fontSize=12;entryX=0.001;entryY=0.487;entryDx=0;entryDy=0;entryPerimeter=0;exitX=0.692;exitY=0.037;exitDx=0;exitDy=0;exitPerimeter=0;" edge="1" parent="1" source="H7WxGsa-LHLX9y35NHfY-78" target="vy7EhUKRSJDdzfkEdfcL-23">
          <mxGeometry relative="1" as="geometry">
            <mxPoint x="1470" y="1049" as="sourcePoint" />
            <mxPoint x="1818" y="797" as="targetPoint" />
          </mxGeometry>
        </mxCell>
        <mxCell id="H7WxGsa-LHLX9y35NHfY-81" style="edgeStyle=none;html=1;labelBackgroundColor=none;startFill=0;endArrow=none;endFill=0;strokeWidth=5;fontFamily=Verdana;fontSize=12;entryX=0.001;entryY=0.446;entryDx=0;entryDy=0;entryPerimeter=0;exitX=0.707;exitY=0.998;exitDx=0;exitDy=0;exitPerimeter=0;" edge="1" parent="1" source="H7WxGsa-LHLX9y35NHfY-78" target="H7WxGsa-LHLX9y35NHfY-22">
          <mxGeometry relative="1" as="geometry">
            <mxPoint x="1340" y="1548.75" as="sourcePoint" />
            <mxPoint x="1843" y="1185.75" as="targetPoint" />
          </mxGeometry>
        </mxCell>
        <mxCell id="H7WxGsa-LHLX9y35NHfY-82" style="edgeStyle=none;html=1;labelBackgroundColor=none;startFill=0;endArrow=none;endFill=0;strokeWidth=5;fontFamily=Verdana;fontSize=12;entryX=0;entryY=0.5;entryDx=0;entryDy=0;entryPerimeter=0;exitX=0.875;exitY=0.5;exitDx=0;exitDy=0;exitPerimeter=0;" edge="1" parent="1" source="H7WxGsa-LHLX9y35NHfY-77" target="H7WxGsa-LHLX9y35NHfY-78">
          <mxGeometry relative="1" as="geometry">
            <mxPoint x="920" y="1683" as="sourcePoint" />
            <mxPoint x="1423" y="1320" as="targetPoint" />
          </mxGeometry>
        </mxCell>
        <mxCell id="H7WxGsa-LHLX9y35NHfY-83" value="ISP" style="text;html=1;align=center;verticalAlign=middle;resizable=0;points=[];autosize=1;strokeColor=none;fillColor=none;fontSize=30;" vertex="1" parent="1">
          <mxGeometry x="1465" y="1294" width="70" height="50" as="geometry" />
        </mxCell>
        <mxCell id="H7WxGsa-LHLX9y35NHfY-84" value="INTERNET" style="text;html=1;align=center;verticalAlign=middle;resizable=0;points=[];autosize=1;strokeColor=none;fillColor=none;fontSize=50;fontStyle=1" vertex="1" parent="1">
          <mxGeometry x="785" y="1208" width="270" height="70" as="geometry" />
        </mxCell>
      </root>
    </mxGraphModel>
  </diagram>
</mxfile>
